<svg width="126" height="42" viewBox="0 0 126 42" fill="none" xmlns="http://www.w3.org/2000/svg">
<g clip-path="url(#clip0_537_9426)">
<path d="M25.9479 30.0386C24.8909 30.0386 24.0278 29.1814 24.0278 28.1315C24.0278 27.0816 24.8875 26.2244 25.9479 26.2244C27.0083 26.2244 27.868 27.0783 27.868 28.1315C27.868 29.1848 27.0083 30.0386 25.9479 30.0386Z" fill="white"/>
<path d="M13.3201 29.002H10.052C9.57699 29.002 9.18896 28.6166 9.18896 28.1448C9.18896 27.6464 9.57699 27.261 10.052 27.261H13.3201C13.7951 27.261 14.1832 27.6464 14.1832 28.1182C14.1832 28.6166 13.7951 29.002 13.3201 29.002Z" fill="white"/>
<path d="M11.6979 30.6101C11.1961 30.6101 10.8081 30.2247 10.8081 29.7529V26.5068C10.8081 26.035 11.1961 25.6496 11.6711 25.6496C12.1729 25.6496 12.5609 26.035 12.5609 26.5068V29.7529C12.5609 30.2247 12.1762 30.6101 11.6979 30.6101Z" fill="white"/>
<path d="M26.9314 38.9562C25.4428 38.9562 24.2386 37.7601 24.2386 36.2816C24.2386 34.8031 25.4428 33.607 26.9314 33.607C29.972 33.607 32.4474 31.1484 32.4474 28.1282C32.4474 25.1081 29.972 22.6494 26.9314 22.6494C20.9203 22.6494 16.0298 17.7919 16.0298 11.8247C16.0298 5.85749 20.9203 1 26.9314 1H35.1402C36.6287 1 37.833 2.1961 37.833 3.67461C37.833 5.15312 36.6287 6.34922 35.1402 6.34922H26.9314C23.8907 6.34922 21.4154 8.80787 21.4154 11.828C21.4154 14.8482 23.8907 17.3068 26.9314 17.3068C32.9425 17.3068 37.8296 22.1643 37.8296 28.1315C37.8296 34.0987 32.9425 38.9562 26.9314 38.9562Z" fill="#FF9979"/>
<path d="M10.8982 38.9562C4.8905 38.9562 0 34.0987 0 28.1315C0 22.161 4.8905 17.3068 10.8982 17.3068C12.3868 17.3068 13.591 18.5029 13.591 19.9814C13.591 21.4599 12.3868 22.656 10.8982 22.656C7.85757 22.656 5.38222 25.1147 5.38222 28.1348C5.38222 31.155 7.85757 33.6137 10.8982 33.6137C12.3868 33.6137 13.591 34.8097 13.591 36.2883C13.591 37.7668 12.3868 38.9562 10.8982 38.9562Z" fill="#F94647"/>
<path d="M26.9311 38.9562C25.4425 38.9562 24.2383 37.7601 24.2383 36.2816C24.2383 34.8031 25.4425 33.607 26.9311 33.607C29.9717 33.607 32.4471 31.1484 32.4471 28.1282C32.4471 25.1081 29.9717 22.6494 26.9311 22.6494C25.4425 22.6494 24.2383 21.4533 24.2383 19.9748C24.2383 18.4963 25.4425 17.3002 26.9311 17.3002C32.9422 17.3002 37.8293 22.1577 37.8293 28.1249C37.8293 34.0921 32.9422 38.9562 26.9311 38.9562Z" fill="#F94647"/>
<path d="M22.4222 38.9429L19.7461 36.2783L22.4222 33.617H26.9313V38.9429H22.4222Z" fill="#F94647"/>
<path d="M15.7785 38.9429L18.4545 36.2783L15.7785 33.617H10.9014V38.9429H15.7785Z" fill="#F94647"/>
<path d="M16.3906 32.9857L19.07 35.647L21.7494 32.9857V31.1949H16.3906V32.9857Z" fill="#FF9978"/>
<path d="M16.3906 39.3749L19.07 36.7169L21.7494 39.3749V41.169H16.3906V39.3749Z" fill="#FF9978"/>
<path d="M47.8379 15.7652C47.2459 15.7685 46.8077 15.9546 46.5267 16.3234C46.2457 16.6955 46.1721 17.2371 46.1721 17.9381C46.1721 18.6391 46.2055 19.1575 46.5267 19.5927C46.8478 20.028 47.2459 20.1509 47.8379 20.1509L52.1765 20.1841C52.6147 20.1874 52.9392 20.3668 53.1466 20.7224C53.354 21.0779 53.4342 21.5962 53.3908 22.274L47.7075 22.2241C46.6237 22.2108 45.8075 21.8287 45.2522 21.0812C44.6969 20.3336 44.5464 19.0345 44.5464 17.9547C44.5464 16.8749 44.6969 15.5758 45.2522 14.8282C45.8075 14.0807 46.6237 13.6986 47.7075 13.6853H47.8379L52.1765 13.7218C52.6147 13.7252 52.9392 13.9046 53.1466 14.2601C53.354 14.6156 53.4342 15.1339 53.3908 15.8117L47.8379 15.7652Z" fill="white"/>
<path d="M44.5799 24.5166C44.8743 23.9884 45.3025 23.7126 45.7139 23.6362C46.0551 23.5731 46.306 23.6561 46.4666 23.8887C46.6271 24.1179 46.781 24.5632 46.7475 25.0815C46.0551 25.1712 45.5299 25.8058 45.5567 26.6264C45.5734 27.158 45.7039 27.4903 45.9079 27.7162C46.1086 27.9455 46.4331 28.0684 46.8813 28.0883L47.2125 28.0983C47.3062 28.2378 47.3597 28.2844 47.4233 28.3475L47.4902 28.2943C47.3162 28.075 47.1791 27.7627 47.072 27.3541C46.965 26.9454 46.9248 26.5633 46.9483 26.2045C46.9917 25.5001 47.0586 24.8987 47.44 24.407C47.8213 23.912 48.2963 23.6129 48.8616 23.5099C48.9988 23.4834 49.1359 23.4734 49.2697 23.4767L51.1095 23.4867C51.802 23.49 52.3472 23.7359 52.7386 24.2309C53.1299 24.726 53.2972 25.3572 53.2905 26.158C53.2838 26.6763 53.2571 27.0683 53.1065 27.4604C52.9426 27.889 52.7821 28.1548 52.5011 28.4405L52.5479 28.5169C52.6549 28.4405 52.6851 28.4073 52.8055 28.2777C53.0329 28.2711 53.1968 28.4173 53.2972 28.7163C53.3976 29.0153 53.4277 29.2944 53.3909 29.8758L47.0051 29.8293C46.102 29.8194 45.3995 29.6698 44.9044 29.0585C44.4093 28.4472 44.1685 27.5567 44.1685 26.5201C44.1652 25.5333 44.3792 24.8821 44.5799 24.5166ZM48.6342 27.2178C48.7914 27.4803 49.0556 27.6132 49.3032 27.6165L50.9891 27.6232C51.0125 27.6265 51.056 27.6232 51.1162 27.6132C51.3403 27.5733 51.531 27.4272 51.6882 27.178C51.8488 26.9288 51.8755 26.6131 51.8755 26.2842C51.8755 25.7858 51.7718 25.4935 51.6247 25.2642C51.4775 25.035 51.1965 24.9187 50.8854 24.912H49.3902C49.3467 24.912 49.2831 24.9187 49.1995 24.9353C48.952 24.9818 48.7579 25.118 48.6141 25.3439C48.4736 25.5699 48.4034 25.8689 48.4 26.2477C48.3933 26.6729 48.477 26.952 48.6342 27.2178Z" fill="white"/>
<path d="M55.1137 15.2436C55.1137 14.7983 55.2977 14.4329 55.6723 14.1405C56.0436 13.8481 56.4985 13.7052 57.0304 13.7052H63.9848C65.0151 13.7052 66.4568 13.8248 67.37 14.2003C68.2832 14.5757 68.9054 15.0874 69.4406 15.8316C69.9457 16.536 70.22 17.9348 70.22 19.1176C70.22 20.6227 69.8822 22.0381 69.1496 22.8288C68.0792 23.9884 66.5271 24.5299 64.1922 24.5299H58.8869V27.5634C58.8869 28.3608 58.5624 28.9655 57.9135 29.3808C57.2646 29.7961 56.3212 30.0021 55.0869 30.0021L55.1137 15.2436ZM63.9547 21.6095C65.0519 21.6095 65.9785 21.4201 66.41 20.9051C66.8415 20.3934 66.9352 19.7588 66.9318 19.1641C66.9318 18.5395 66.8348 17.8584 66.3598 17.3268C65.9919 16.9148 65.082 16.6224 63.9848 16.6224H58.9103L58.8802 21.6128H63.9547V21.6095Z" fill="white"/>
<path d="M71.9292 15.8848C71.9325 15.1173 72.247 14.5292 72.8725 14.1139C73.4947 13.6986 74.3644 13.4926 75.4816 13.4926L75.4582 19.4465C75.1873 19.7389 74.9732 19.998 74.8126 20.2273L74.9866 20.3203C76.1908 18.8319 77.6827 18.0909 79.469 18.0909C80.5494 18.0909 81.4994 18.4066 82.319 19.0345C83.1352 19.6625 83.6403 20.4599 83.8276 21.4267C83.8711 21.656 83.8945 21.9018 83.8945 22.161L83.8811 28.1614C83.8677 28.7894 83.5734 29.2545 83.0081 29.5536C82.4394 29.8526 81.5563 30.0021 80.3521 30.0021L80.3588 22.6461C80.3521 22.4301 80.3387 22.2873 80.3253 22.2108C80.2383 21.7656 80.0176 21.4201 79.6596 21.1775C79.3017 20.9317 78.8334 20.8087 78.248 20.8087C77.4251 20.8087 76.7494 21.048 76.2242 21.5231C75.6991 21.9982 75.4382 22.5962 75.4415 23.3172L75.4348 28.1681C75.4415 28.8126 75.1572 29.2811 74.5885 29.5702C74.0198 29.8625 73.1234 30.0054 71.9058 30.0054L71.9292 15.8848Z" fill="white"/>
<path d="M88.491 29.6366C87.6179 29.3077 86.9054 28.8625 86.3501 28.3043C85.7948 27.7461 85.5272 26.9919 85.3901 26.3008C85.3399 26.0417 85.3165 25.8423 85.3232 25.7028L85.3198 22.6461C85.3265 21.2672 85.8651 20.1642 86.9388 19.3369C88.0126 18.5096 89.3506 18.0976 91.2573 18.0976C92.3211 18.0976 93.4417 18.2338 94.3047 18.5395C95.141 18.8352 95.8936 19.2837 96.4355 19.8585C96.9774 20.4333 97.2617 21.1775 97.4056 21.9151C97.4491 22.1444 97.4725 22.3902 97.4725 22.6494L97.4758 25.7061C97.4758 27.0251 96.8771 28.0219 95.81 28.8425C94.7362 29.6698 93.3915 30.0054 91.555 30.0054C90.5482 30.0021 89.364 29.9655 88.491 29.6366ZM93.2811 26.8058C93.726 26.4836 93.9501 26.0384 93.9602 25.4735L93.9535 22.8056C93.9535 22.6228 93.9434 22.4932 93.93 22.4135C93.833 21.9085 93.5621 21.5131 93.1205 21.2307C92.679 20.9483 92.1137 20.8054 91.4279 20.8054C90.6385 20.8054 90.013 20.9882 89.5513 21.357C89.0897 21.7257 88.8589 22.2075 88.8556 22.8056L88.8623 25.4735C88.8589 25.5499 88.8857 25.7626 88.9091 25.8423C88.9559 26.0284 89.1767 26.5832 89.7922 26.9122C90.2371 27.1514 90.789 27.2909 91.4915 27.2909C92.2207 27.2876 92.8362 27.1281 93.2811 26.8058Z" fill="white"/>
<path d="M99.1417 20.4831C99.145 19.7023 99.4327 19.1076 100.005 18.7023C100.577 18.2969 101.413 18.0943 102.513 18.0943L102.52 19.4498C102.236 19.7555 102.022 20.018 101.875 20.2306L102.049 20.3237C102.577 19.6027 103.246 19.0511 104.056 18.669C104.865 18.287 105.741 18.0943 106.685 18.0943C107.765 18.0943 108.712 18.4099 109.521 19.0378C110.331 19.6658 110.829 20.4632 111.017 21.43C111.06 21.6593 111.084 21.9052 111.084 22.1643L111.07 28.1648C111.057 28.7927 110.769 29.2579 110.207 29.5569C109.649 29.8559 108.759 30.0054 107.538 30.0054L107.544 22.6494C107.538 22.4334 107.524 22.2806 107.508 22.1909C107.421 21.7457 107.203 21.4068 106.859 21.1676C106.511 20.9283 106.046 20.8121 105.464 20.8121C104.658 20.8121 103.985 21.0446 103.45 21.5131C102.915 21.9816 102.651 22.583 102.657 23.3172L102.651 28.1681C102.637 28.8126 102.356 29.2811 101.804 29.5702C101.252 29.8625 100.356 30.0054 99.1216 30.0054L99.1417 20.4831Z" fill="white"/>
<path d="M116.83 29.507C115.984 29.1781 115.288 28.7296 114.739 28.1614C114.191 27.5933 113.85 26.9653 113.716 26.2776C113.662 26.0018 113.639 25.7958 113.646 25.6563L113.662 22.7125C113.659 21.8088 113.947 21.0347 114.418 20.3104C114.877 19.606 115.897 18.9083 116.405 18.679C117.258 18.2936 118.289 18.0909 119.439 18.0909C120.399 18.0909 121.42 18.2604 122.212 18.5727C123.002 18.885 123.657 19.3136 124.173 19.8751C124.684 20.4333 125.009 21.0679 125.149 21.7723C125.196 22.0181 125.223 22.2773 125.226 22.5531L125.21 23.7957C125.2 24.1778 125.039 24.4934 124.738 24.7393C124.434 24.9851 124.042 25.1081 123.56 25.1081L117.041 25.0981L117.051 25.4204C117.051 25.5134 117.071 25.6496 117.104 25.8357C117.208 26.3739 117.499 26.7959 117.917 27.0883C118.335 27.3806 119.025 27.5235 119.71 27.5235C120.45 27.5235 121.098 27.3773 121.513 27.0849C121.841 26.8557 122.182 26.3806 122.189 25.8955C122.557 25.8589 122.701 25.8423 122.992 25.8357C124.296 25.7958 125.072 25.942 125.223 26.756C125.297 27.168 125.022 27.7827 124.658 28.1913C124.069 28.8525 123.303 29.2944 122.651 29.5569C121.955 29.836 121.092 29.9988 119.807 29.9988C118.841 29.9988 117.676 29.836 116.83 29.507ZM122.028 22.8787V22.5564C122.035 22.3703 122.008 22.161 121.951 21.9816C121.878 21.7357 121.634 21.2938 121.232 21.0048C120.871 20.7456 120.393 20.5529 119.553 20.5529C118.831 20.5529 118.319 20.719 117.867 21.0413C117.399 21.3769 117.078 22.0746 117.078 22.5531V22.8753L122.028 22.8787Z" fill="white"/>
</g>
<defs>
<clipPath id="clip0_537_9426">
<rect width="125.233" height="40.169" fill="white" transform="translate(0 1)"/>
</clipPath>
</defs>
</svg>
